<svg width="16" height="15" viewBox="0 0 16 15" fill="none" xmlns="http://www.w3.org/2000/svg">
<g id="icn shopping-cart .icn-xs" clip-path="url(#clip0_339_31632)">
<path id="Vector" d="M5.33229 14.9331C5.92139 14.9331 6.39896 14.4556 6.39896 13.8665C6.39896 13.2774 5.92139 12.7998 5.33229 12.7998C4.74319 12.7998 4.26562 13.2774 4.26562 13.8665C4.26562 14.4556 4.74319 14.9331 5.33229 14.9331Z" fill="#737373"/>
<path id="Vector_2" d="M12.801 14.9331C13.3901 14.9331 13.8677 14.4556 13.8677 13.8665C13.8677 13.2774 13.3901 12.7998 12.801 12.7998C12.2119 12.7998 11.7344 13.2774 11.7344 13.8665C11.7344 14.4556 12.2119 14.9331 12.801 14.9331Z" fill="#737373"/>
<path id="Vector_3" d="M14.9333 2.66678H3.104L2.66667 0.426775C2.64173 0.304495 2.57471 0.19483 2.47726 0.11687C2.37981 0.0389102 2.25811 -0.00240773 2.13333 0.000108501H0V1.06678H1.696L3.73333 11.3068C3.75827 11.4291 3.82529 11.5387 3.92274 11.6167C4.02019 11.6946 4.1419 11.736 4.26667 11.7334H13.8667V10.6668H4.704L4.26667 8.53344H13.8667C13.99 8.53646 14.1105 8.49665 14.2077 8.4208C14.305 8.34496 14.3729 8.23775 14.4 8.11744L15.4667 3.31744C15.4845 3.23831 15.4841 3.15614 15.4655 3.07719C15.4468 2.99824 15.4103 2.9246 15.3589 2.86185C15.3075 2.79911 15.2424 2.74893 15.1687 2.71512C15.0949 2.68132 15.0144 2.66478 14.9333 2.66678ZM13.44 7.46678H4.064L3.31733 3.73344H14.2667L13.44 7.46678Z" fill="#737373"/>
</g>
<defs>
<clipPath id="clip0_339_31632">
<rect width="16" height="14.9334" fill="white"/>
</clipPath>
</defs>
</svg>
